<svg xmlns="http://www.w3.org/2000/svg" width="360" height="380" fill="none"><defs><clipPath id="a"><path fill="#fff" d="M0 0h240v300H0z"/></clipPath></defs><g clip-path="url(#a)" transform="translate(60 40)"><mask id="b" width="240" height="300" x="0" y="0" maskUnits="userSpaceOnUse"><path fill="#fff" d="M240 0H0v300h240z"/></mask><g mask="url(#b)"><path fill="#4b4646" d="M180 240H60V120h120z"/><path fill="#f1ecec" d="M180 60H60v180h120zm60 240H0V0h240z"/></g></g><g transform="translate(-201.392 -118.245)scale(1.2948)"><path d="M417.75 376.077h-40.997c-3.758 0-6.833-3.075-6.833-6.833V287.25c0-3.758 3.075-6.833 6.833-6.833h40.998c3.758 0 6.833 3.075 6.833 6.833v81.995c0 3.758-3.075 6.833-6.833 6.833" style="fill:#8a8aff;stroke:#8a8aff;stroke-width:6.8329;stroke-linecap:round;stroke-linejoin:round;stroke-miterlimit:10"/><path d="M369.92 294.082h54.664v61.496H369.92z" class="st17" style="fill:#5252ba;stroke:#5252ba;stroke-width:6.8329;stroke-linecap:round;stroke-linejoin:round;stroke-miterlimit:10"/><circle cx="397.252" cy="369.244" r="3.416" style="fill:#e3faff;stroke:#e3faff;stroke-width:6.8329;stroke-linecap:round;stroke-linejoin:round;stroke-miterlimit:10"/><path d="M390.419 283.833h13.666" class="st17" style="fill:#5252ba;stroke:#5252ba;stroke-width:6.8329;stroke-linecap:round;stroke-linejoin:round;stroke-miterlimit:10"/></g></svg>