<?xml version="1.0" encoding="UTF-8" standalone="no"?>
<svg
   width="320"
   height="340"
   viewBox="0 0 320 340"
   fill="none"
   version="1.1"
   id="svg4"
   sodipodi:docname="favicon.svg"
   inkscape:version="1.4.2 (f4327f4, 2025-05-13)"
   xmlns:inkscape="http://www.inkscape.org/namespaces/inkscape"
   xmlns:sodipodi="http://sodipodi.sourceforge.net/DTD/sodipodi-0.dtd"
   xmlns="http://www.w3.org/2000/svg"
   xmlns:svg="http://www.w3.org/2000/svg">
  <sodipodi:namedview
     id="namedview4"
     pagecolor="#ffffff"
     bordercolor="#000000"
     borderopacity="0.25"
     inkscape:showpageshadow="2"
     inkscape:pageopacity="0.0"
     inkscape:pagecheckerboard="0"
     inkscape:deskcolor="#d1d1d1"
     inkscape:zoom="1.3753227"
     inkscape:cx="201.77083"
     inkscape:cy="258.12124"
     inkscape:window-width="1718"
     inkscape:window-height="1360"
     inkscape:window-x="0"
     inkscape:window-y="0"
     inkscape:window-maximized="0"
     inkscape:current-layer="svg4" />
  <defs
     id="defs4">
    <clipPath
       id="clip0_1401_86274">
      <rect
         width="240"
         height="300"
         fill="#ffffff"
         id="rect4"
         x="0"
         y="0" />
    </clipPath>
    <clipPath
       id="clip0_1401_86283">
      <rect
         width="240"
         height="300"
         fill="#ffffff"
         id="rect4-1"
         x="0"
         y="0" />
    </clipPath>
    <mask
       id="mask0_1401_86283"
       maskUnits="userSpaceOnUse"
       x="0"
       y="0"
       width="240"
       height="300">
      <path
         d="M 240,0 H 0 v 300 h 240 z"
         fill="#ffffff"
         id="path1-6" />
    </mask>
  </defs>
  <g
     id="g6"
     transform="translate(-31.992492,-36.355104)">
    <g
       clip-path="url(#clip0_1401_86274)"
       id="g4"
       transform="translate(60,40)">
      <mask
         id="mask0_1401_86274"
         maskUnits="userSpaceOnUse"
         x="0"
         y="0"
         width="240"
         height="300">
        <path
           d="M 240,0 H 0 v 300 h 240 z"
           fill="#ffffff"
           id="path1" />
      </mask>
      <g
         mask="url(#mask0_1401_86274)"
         id="g3">
        <path
           d="M 180,240 H 60 V 120 h 120 z"
           fill="#cfcecd"
           id="path2" />
        <path
           d="M 180,60 H 60 v 180 h 120 z m 60,240 H 0 V 0 h 240 z"
           fill="#211e1e"
           id="path3" />
      </g>
    </g>
    <g
       id="g5"
       transform="matrix(1.2948059,0,0,1.2948059,-202.58782,-118.60306)">
      <path
         d="m 417.75064,376.07712 h -40.99743 c -3.75809,0 -6.8329,-3.07481 -6.8329,-6.8329 v -81.99486 c 0,-3.7581 3.07481,-6.83291 6.8329,-6.83291 h 40.99743 c 3.7581,0 6.83291,3.07481 6.83291,6.83291 v 81.99486 c 0,3.75809 -3.07481,6.8329 -6.83291,6.8329"
         style="fill:#8a8aff;stroke:#8a8aff;stroke-width:6.8329;stroke-linecap:round;stroke-linejoin:round;stroke-miterlimit:10"
         id="path1-8" />
      <path
         d="m 369.92031,294.08226 h 54.66324 v 61.49615 h -54.66324 z"
         class="st17"
         id="path2-8"
         style="fill:#5252ba;stroke:#5252ba;stroke-width:6.8329;stroke-linecap:round;stroke-linejoin:round;stroke-miterlimit:10" />
      <circle
         cx="397.25192"
         cy="369.2442"
         r="3.4164524"
         style="fill:#e3faff;stroke:#e3faff;stroke-width:6.8329;stroke-linecap:round;stroke-linejoin:round;stroke-miterlimit:10"
         id="circle2" />
      <path
         d="m 390.41902,283.8329 h 13.66581"
         class="st17"
         id="path3-2"
         style="fill:#5252ba;stroke:#5252ba;stroke-width:6.8329;stroke-linecap:round;stroke-linejoin:round;stroke-miterlimit:10" />
    </g>
  </g>
</svg>
